<mxfile host="Electron" agent="Mozilla/5.0 (Windows NT 10.0; Win64; x64) AppleWebKit/537.36 (KHTML, like Gecko) draw.io/25.0.2 Chrome/128.0.6613.186 Electron/32.2.5 Safari/537.36" version="25.0.2">
  <diagram name="Data Storage in Digital Engineering" id="0">
    <mxGraphModel dx="1036" dy="615" grid="1" gridSize="10" guides="1" tooltips="1" connect="1" arrows="1" fold="1" page="1" pageScale="1" pageWidth="827" pageHeight="1169" math="0" shadow="0">
      <root>
        <mxCell id="0" />
        <mxCell id="1" parent="0" />
        <mxCell id="2" value="Data Storage" style="ellipse;whiteSpace=wrap;html=1;aspect=fixed;fontFamily=Times New Roman;fontSize=24;" parent="1" vertex="1">
          <mxGeometry x="400" y="300" width="160" height="80" as="geometry" />
        </mxCell>
        <mxCell id="3" value="Databases" style="rounded=1;whiteSpace=wrap;html=1;fontFamily=Times New Roman;fontSize=15;" parent="1" vertex="1">
          <mxGeometry x="210" y="190" width="140" height="70" as="geometry" />
        </mxCell>
        <mxCell id="4" value="Structured storage for querying and retrieval" style="whiteSpace=wrap;html=1;fontFamily=Times New Roman;fontSize=15;" parent="3" vertex="1">
          <mxGeometry width="140" height="70" as="geometry" />
        </mxCell>
        <mxCell id="5" style="fontFamily=Times New Roman;fontSize=15;" parent="1" source="2" target="3" edge="1">
          <mxGeometry relative="1" as="geometry" />
        </mxCell>
        <mxCell id="6" value="Data Warehouses" style="rounded=1;whiteSpace=wrap;html=1;fontFamily=Times New Roman;fontSize=15;" parent="1" vertex="1">
          <mxGeometry x="600" y="190" width="140" height="70" as="geometry" />
        </mxCell>
        <mxCell id="7" value="Aggregates data from multiple sources" style="whiteSpace=wrap;html=1;fontFamily=Times New Roman;fontSize=15;" parent="6" vertex="1">
          <mxGeometry width="140" height="70" as="geometry" />
        </mxCell>
        <mxCell id="8" style="fontFamily=Times New Roman;fontSize=15;" parent="1" source="2" target="6" edge="1">
          <mxGeometry relative="1" as="geometry" />
        </mxCell>
        <mxCell id="9" value="Cloud Storage" style="rounded=1;whiteSpace=wrap;html=1;fontFamily=Times New Roman;fontSize=15;" parent="1" vertex="1">
          <mxGeometry x="210" y="420" width="140" height="70" as="geometry" />
        </mxCell>
        <mxCell id="10" value="Scalable and flexible storage options" style="whiteSpace=wrap;html=1;fontFamily=Times New Roman;fontSize=15;" parent="9" vertex="1">
          <mxGeometry width="140" height="70" as="geometry" />
        </mxCell>
        <mxCell id="11" style="fontFamily=Times New Roman;fontSize=15;" parent="1" source="2" target="9" edge="1">
          <mxGeometry relative="1" as="geometry" />
        </mxCell>
        <mxCell id="12" value="Data Integration" style="rounded=1;whiteSpace=wrap;html=1;fontFamily=Times New Roman;fontSize=15;fillColor=#dae8fc;strokeColor=#6c8ebf;" parent="1" vertex="1">
          <mxGeometry x="600" y="420" width="140" height="70" as="geometry" />
        </mxCell>
        <mxCell id="13" value="Combining data from various sources" style="whiteSpace=wrap;html=1;fontFamily=Times New Roman;fontSize=15;" parent="12" vertex="1">
          <mxGeometry width="140" height="70" as="geometry" />
        </mxCell>
        <mxCell id="14" style="fontFamily=Times New Roman;fontSize=15;" parent="1" source="2" target="12" edge="1">
          <mxGeometry relative="1" as="geometry" />
        </mxCell>
        <mxCell id="15" value="Interoperability" style="rounded=1;whiteSpace=wrap;html=1;fontFamily=Times New Roman;fontSize=15;" parent="1" vertex="1">
          <mxGeometry x="410" y="190" width="140" height="70" as="geometry" />
        </mxCell>
        <mxCell id="16" value="Ensuring different systems work together" style="whiteSpace=wrap;html=1;fontFamily=Times New Roman;fontSize=15;" parent="15" vertex="1">
          <mxGeometry width="140" height="70" as="geometry" />
        </mxCell>
        <mxCell id="17" style="fontFamily=Times New Roman;fontSize=15;" parent="1" source="2" target="15" edge="1">
          <mxGeometry relative="1" as="geometry" />
        </mxCell>
        <mxCell id="18" value="Data Quality" style="rounded=1;whiteSpace=wrap;html=1;fontFamily=Times New Roman;fontSize=15;" parent="1" vertex="1">
          <mxGeometry x="210" y="305" width="140" height="70" as="geometry" />
        </mxCell>
        <mxCell id="19" value="Removing duplicates and correcting errors" style="whiteSpace=wrap;html=1;fontFamily=Times New Roman;fontSize=15;" parent="18" vertex="1">
          <mxGeometry width="140" height="70" as="geometry" />
        </mxCell>
        <mxCell id="20" style="fontFamily=Times New Roman;fontSize=15;" parent="1" source="2" target="18" edge="1">
          <mxGeometry relative="1" as="geometry" />
        </mxCell>
        <mxCell id="21" value="Data Integrity" style="rounded=1;whiteSpace=wrap;html=1;fontFamily=Times New Roman;fontSize=15;" parent="1" vertex="1">
          <mxGeometry x="600" y="305" width="140" height="70" as="geometry" />
        </mxCell>
        <mxCell id="22" value="Ensuring accurate and reliable data over time" style="whiteSpace=wrap;html=1;fontFamily=Times New Roman;fontSize=15;" parent="21" vertex="1">
          <mxGeometry width="140" height="70" as="geometry" />
        </mxCell>
        <mxCell id="23" style="fontFamily=Times New Roman;fontSize=15;" parent="1" source="2" target="21" edge="1">
          <mxGeometry relative="1" as="geometry" />
        </mxCell>
      </root>
    </mxGraphModel>
  </diagram>
</mxfile>
